<svg width="159" height="32" viewBox="0 0 159 32" fill="none" xmlns="http://www.w3.org/2000/svg">
<path d="M25.4995 12.4079L25.2703 12.2709V12.2421L25.2664 12.0071C25.2266 10.2729 24.0207 8.75985 22.3431 8.30919C22.0173 8.21968 21.6696 8.17687 21.3367 8.17687H21.0148L20.883 7.892C20.0372 6.08781 18.4321 4.74985 16.4895 4.2307C13.6598 3.47649 10.6975 4.61754 9.0932 6.98135C9.04487 7.0514 8.99887 7.123 8.95366 7.19539C8.91156 7.2631 8.87025 7.33082 8.83049 7.40087C8.80866 7.43745 8.78762 7.47559 8.76735 7.51295C8.72837 7.58378 8.69017 7.65616 8.65275 7.72933C8.63405 7.76669 8.61456 7.80482 8.59585 7.84374L8.48827 8.0609L8.48437 8.06868L8.24038 8.11694C6.25877 8.48898 4.69968 9.93747 4.17817 11.8903C3.43448 14.6643 5.08712 17.5301 7.86464 18.2758L21.3671 21.8896C22.7407 22.2554 24.1665 22.0702 25.3841 21.3728C26.5994 20.6832 27.4616 19.5601 27.8218 18.2135C28.4243 15.9929 27.4616 13.6136 25.5003 12.4102L25.4995 12.4079ZM24.5648 16.9876C24.1213 18.6229 22.4102 19.5974 20.7427 19.1452L9.61939 16.1735C7.98001 15.7306 7.00168 14.0486 7.4468 12.4071C7.95116 10.5103 9.41671 9.87286 10.692 10.0371C10.6936 10.0316 10.6959 10.027 10.6983 10.0215C10.7115 9.98573 10.724 9.9507 10.7373 9.91567C10.7412 9.90322 10.7458 9.89077 10.7505 9.87909C10.7599 9.85652 10.7684 9.83395 10.777 9.81216C10.7879 9.78258 10.7996 9.75378 10.8113 9.72498C10.83 9.67751 10.8503 9.63236 10.8706 9.58644C10.8737 9.57865 10.8776 9.57165 10.8807 9.56465C10.8838 9.55842 10.8861 9.55219 10.8885 9.54596C10.9017 9.51872 10.9134 9.49148 10.9259 9.46424C10.9353 9.44478 10.9438 9.42532 10.9532 9.40742C10.9672 9.37862 10.9813 9.34983 10.9953 9.32103C11 9.31169 11.0046 9.30312 11.0085 9.29378C11.0117 9.28911 11.014 9.28366 11.0163 9.27899C11.0249 9.26187 11.0335 9.24553 11.0421 9.2284C11.0553 9.20272 11.0693 9.17703 11.0834 9.15135C11.0849 9.14668 11.0873 9.14201 11.0904 9.13811C11.1005 9.12021 11.1099 9.10309 11.12 9.08597C11.127 9.07351 11.1333 9.06106 11.1403 9.04938C11.1442 9.03927 11.1504 9.0307 11.1567 9.02136L11.1574 9.01903C11.1574 9.01903 11.1574 9.01747 11.159 9.01592C11.1683 8.99801 11.1785 8.98011 11.1894 8.96299C11.2034 8.93808 11.2182 8.91473 11.233 8.88983C11.251 8.86181 11.2689 8.83301 11.2868 8.80499C11.378 8.66489 11.4731 8.53179 11.5721 8.40725C11.5909 8.38313 11.6103 8.359 11.6306 8.33565C11.7093 8.24069 11.7896 8.15041 11.8731 8.06557C11.8941 8.04378 11.9151 8.02276 11.9362 8.00252C12.1256 7.81572 12.326 7.65227 12.5349 7.51139C12.5583 7.49583 12.5817 7.48026 12.605 7.46547C12.6144 7.45924 12.6238 7.4538 12.6323 7.44835C12.6557 7.432 12.6799 7.41721 12.7033 7.4032C12.7399 7.38141 12.7758 7.36039 12.8124 7.33938C12.98 7.24442 13.1523 7.1627 13.3277 7.09498L13.3846 7.07241C13.422 7.0584 13.4602 7.04517 13.4984 7.03194C13.5428 7.01637 13.5873 7.00236 13.6317 6.98913C13.6566 6.98212 13.6824 6.97434 13.7081 6.96733C13.7596 6.95254 13.811 6.93932 13.8624 6.92686C14.002 6.89339 14.1431 6.86693 14.2842 6.84747C14.3185 6.8428 14.3536 6.83813 14.3879 6.83424C14.4736 6.82412 14.5601 6.81711 14.6467 6.81244C14.6973 6.81011 14.7472 6.80777 14.7979 6.80699C15.2344 6.79921 15.6694 6.85525 16.0873 6.96889C17.2652 7.28022 18.1655 7.92858 18.7712 8.8945C18.9661 9.21206 19.1064 9.52495 19.2078 9.80904C19.2179 9.83706 19.2273 9.86586 19.2366 9.89388C19.2405 9.90634 19.2452 9.92034 19.2499 9.9328C19.2569 9.95304 19.2624 9.97327 19.2686 9.99273C19.2795 10.0278 19.2896 10.062 19.299 10.0955C19.3052 10.1149 19.3107 10.1352 19.3154 10.1546C19.3224 10.1811 19.3294 10.2068 19.3356 10.2317C19.3403 10.2504 19.345 10.2675 19.3489 10.2854C19.3504 10.2924 19.352 10.2986 19.3536 10.3056C19.7574 10.1554 20.2118 10.1321 20.6616 10.2504C21.4162 10.4551 22.0555 11.0139 22.3392 11.7074C22.5138 12.1487 22.5302 12.6165 22.4047 13.064C22.4024 13.0734 22.4 13.0827 22.3969 13.0928C22.407 13.0983 22.4148 13.1006 22.4281 13.1061C24.0885 13.5474 25.0286 15.2504 24.5617 16.9869" fill="#8F949D"/>
<path d="M18.0709 21.005L16.9202 22.5329L18.0506 23.0006L19.301 21.3342L18.0709 21.005Z" fill="#8F949D"/>
<path d="M10.0484 18.858L10.1576 19.7337L11.4134 20.2536L11.2778 19.1873L10.0484 18.858Z" fill="#8F949D"/>
<path d="M14.0863 19.9384L13.744 21.218L14.8947 21.6943L15.2782 20.2575L14.0863 19.9384Z" fill="#8F949D"/>
<path d="M16.3076 25.3225L18.0506 23.0006L16.9202 22.5329L15.0494 25.0166C14.7236 24.9349 14.3977 24.8524 14.0726 24.7676L14.8927 21.6931L13.7421 21.2168L12.876 24.4508C12.5533 24.3636 12.2314 24.2757 11.9094 24.1854L11.4113 20.2517L10.1562 19.7317L10.666 23.8297C9.7033 23.5487 8.74524 23.2568 7.79264 22.9517C8.5449 25.8549 11.1852 28 14.3283 28C16.2242 28 17.9361 27.2193 19.1623 25.9631C18.2058 25.7615 17.254 25.5467 16.3068 25.3217L16.3076 25.3225Z" fill="#8F949D"/>
<path d="M60.7246 8.78125V23H58.2734L51.8965 12.8145V23H49.4453V8.78125H51.8965L58.293 18.9863V8.78125H60.7246ZM68.1684 23.1953C67.3871 23.1953 66.6807 23.0684 66.0492 22.8145C65.4242 22.554 64.8904 22.1927 64.4477 21.7305C64.0115 21.2682 63.6762 20.7246 63.4418 20.0996C63.2074 19.4746 63.0902 18.8008 63.0902 18.0781V17.6875C63.0902 16.8607 63.2107 16.112 63.4516 15.4414C63.6924 14.7708 64.0277 14.1979 64.4574 13.7227C64.8871 13.2409 65.3949 12.873 65.9809 12.6191C66.5668 12.3652 67.2016 12.2383 67.8852 12.2383C68.6404 12.2383 69.3012 12.3652 69.8676 12.6191C70.434 12.873 70.9027 13.2311 71.2738 13.6934C71.6514 14.1491 71.9314 14.6927 72.1137 15.3242C72.3025 15.9557 72.3969 16.6523 72.3969 17.4141V18.4199H64.2328V16.7305H70.0727V16.5449C70.0596 16.1217 69.975 15.7246 69.8188 15.3535C69.669 14.9824 69.4379 14.6829 69.1254 14.4551C68.8129 14.2272 68.3962 14.1133 67.8754 14.1133C67.4848 14.1133 67.1365 14.1979 66.8305 14.3672C66.531 14.5299 66.2803 14.7676 66.0785 15.0801C65.8767 15.3926 65.7204 15.7702 65.6098 16.2129C65.5056 16.6491 65.4535 17.1406 65.4535 17.6875V18.0781C65.4535 18.5404 65.5154 18.9701 65.6391 19.3672C65.7693 19.7578 65.9581 20.0996 66.2055 20.3926C66.4529 20.6855 66.7523 20.9167 67.1039 21.0859C67.4555 21.2487 67.8559 21.3301 68.3051 21.3301C68.8715 21.3301 69.376 21.2161 69.8188 20.9883C70.2615 20.7604 70.6456 20.4382 70.9711 20.0215L72.2113 21.2227C71.9835 21.5547 71.6872 21.8737 71.3227 22.1797C70.9581 22.4792 70.5121 22.7233 69.9848 22.9121C69.4639 23.1009 68.8585 23.1953 68.1684 23.1953ZM79.1766 12.4336V14.1523H73.2195V12.4336H79.1766ZM74.9383 9.8457H77.2918V20.0801C77.2918 20.4056 77.3374 20.6562 77.4285 20.832C77.5262 21.0013 77.6596 21.1152 77.8289 21.1738C77.9982 21.2324 78.1967 21.2617 78.4246 21.2617C78.5874 21.2617 78.7436 21.252 78.8934 21.2324C79.0431 21.2129 79.1635 21.1934 79.2547 21.1738L79.2645 22.9707C79.0691 23.0293 78.8413 23.0814 78.5809 23.127C78.327 23.1725 78.034 23.1953 77.702 23.1953C77.1616 23.1953 76.6831 23.1009 76.2664 22.9121C75.8497 22.7168 75.5242 22.401 75.2898 21.9648C75.0555 21.5286 74.9383 20.9492 74.9383 20.2266V9.8457ZM85.7512 23.1953C84.9699 23.1953 84.2635 23.0684 83.632 22.8145C83.007 22.554 82.4732 22.1927 82.0305 21.7305C81.5943 21.2682 81.259 20.7246 81.0246 20.0996C80.7902 19.4746 80.673 18.8008 80.673 18.0781V17.6875C80.673 16.8607 80.7935 16.112 81.0344 15.4414C81.2753 14.7708 81.6105 14.1979 82.0402 13.7227C82.4699 13.2409 82.9777 12.873 83.5637 12.6191C84.1496 12.3652 84.7844 12.2383 85.468 12.2383C86.2232 12.2383 86.884 12.3652 87.4504 12.6191C88.0168 12.873 88.4855 13.2311 88.8566 13.6934C89.2342 14.1491 89.5142 14.6927 89.6965 15.3242C89.8853 15.9557 89.9797 16.6523 89.9797 17.4141V18.4199H81.8156V16.7305H87.6555V16.5449C87.6424 16.1217 87.5578 15.7246 87.4016 15.3535C87.2518 14.9824 87.0207 14.6829 86.7082 14.4551C86.3957 14.2272 85.979 14.1133 85.4582 14.1133C85.0676 14.1133 84.7193 14.1979 84.4133 14.3672C84.1138 14.5299 83.8632 14.7676 83.6613 15.0801C83.4595 15.3926 83.3033 15.7702 83.1926 16.2129C83.0884 16.6491 83.0363 17.1406 83.0363 17.6875V18.0781C83.0363 18.5404 83.0982 18.9701 83.2219 19.3672C83.3521 19.7578 83.5409 20.0996 83.7883 20.3926C84.0357 20.6855 84.3352 20.9167 84.6867 21.0859C85.0383 21.2487 85.4387 21.3301 85.8879 21.3301C86.4543 21.3301 86.9589 21.2161 87.4016 20.9883C87.8443 20.7604 88.2284 20.4382 88.5539 20.0215L89.7941 21.2227C89.5663 21.5547 89.2701 21.8737 88.9055 22.1797C88.5409 22.4792 88.0949 22.7233 87.5676 22.9121C87.0467 23.1009 86.4413 23.1953 85.7512 23.1953ZM93.7125 12.4336L95.7242 15.9395L97.775 12.4336H100.363L97.1598 17.6191L100.49 23H97.902L95.7535 19.3477L93.6051 23H91.0074L94.3277 17.6191L91.1344 12.4336H93.7125ZM115.787 18.3711H118.229C118.151 19.3021 117.89 20.1322 117.448 20.8613C117.005 21.584 116.383 22.1536 115.582 22.5703C114.782 22.987 113.808 23.1953 112.662 23.1953C111.784 23.1953 110.993 23.0391 110.289 22.7266C109.586 22.4076 108.984 21.9583 108.483 21.3789C107.982 20.793 107.597 20.0866 107.33 19.2598C107.07 18.4329 106.94 17.5085 106.94 16.4863V15.3047C106.94 14.2826 107.073 13.3581 107.34 12.5312C107.614 11.7044 108.004 10.998 108.512 10.4121C109.02 9.81966 109.629 9.36719 110.338 9.05469C111.054 8.74219 111.858 8.58594 112.75 8.58594C113.883 8.58594 114.84 8.79427 115.621 9.21094C116.403 9.6276 117.008 10.2038 117.438 10.9395C117.874 11.6751 118.141 12.5182 118.239 13.4688H115.797C115.732 12.8568 115.589 12.3327 115.368 11.8965C115.153 11.4603 114.834 11.1283 114.411 10.9004C113.987 10.666 113.434 10.5488 112.75 10.5488C112.19 10.5488 111.702 10.653 111.286 10.8613C110.869 11.0697 110.521 11.3757 110.241 11.7793C109.961 12.1829 109.749 12.681 109.606 13.2734C109.469 13.8594 109.401 14.5299 109.401 15.2852V16.4863C109.401 17.2025 109.463 17.8535 109.586 18.4395C109.717 19.0189 109.912 19.5169 110.172 19.9336C110.439 20.3503 110.778 20.6725 111.188 20.9004C111.598 21.1283 112.09 21.2422 112.662 21.2422C113.359 21.2422 113.922 21.1315 114.352 20.9102C114.788 20.6888 115.117 20.3665 115.338 19.9434C115.566 19.5137 115.716 18.9896 115.787 18.3711ZM122.841 8V23H120.477V8H122.841ZM125.07 17.834V17.6094C125.07 16.8477 125.18 16.1413 125.402 15.4902C125.623 14.8327 125.942 14.263 126.359 13.7812C126.782 13.293 127.296 12.9154 127.902 12.6484C128.514 12.375 129.204 12.2383 129.972 12.2383C130.747 12.2383 131.437 12.375 132.042 12.6484C132.654 12.9154 133.172 13.293 133.595 13.7812C134.018 14.263 134.34 14.8327 134.562 15.4902C134.783 16.1413 134.894 16.8477 134.894 17.6094V17.834C134.894 18.5957 134.783 19.3021 134.562 19.9531C134.34 20.6042 134.018 21.1738 133.595 21.6621C133.172 22.1439 132.657 22.5215 132.052 22.7949C131.446 23.0618 130.76 23.1953 129.991 23.1953C129.217 23.1953 128.523 23.0618 127.911 22.7949C127.306 22.5215 126.792 22.1439 126.368 21.6621C125.945 21.1738 125.623 20.6042 125.402 19.9531C125.18 19.3021 125.07 18.5957 125.07 17.834ZM127.423 17.6094V17.834C127.423 18.3092 127.472 18.7585 127.57 19.1816C127.667 19.6048 127.82 19.9759 128.029 20.2949C128.237 20.6139 128.504 20.8646 128.829 21.0469C129.155 21.2292 129.542 21.3203 129.991 21.3203C130.428 21.3203 130.805 21.2292 131.124 21.0469C131.45 20.8646 131.717 20.6139 131.925 20.2949C132.133 19.9759 132.286 19.6048 132.384 19.1816C132.488 18.7585 132.54 18.3092 132.54 17.834V17.6094C132.54 17.1406 132.488 16.6979 132.384 16.2812C132.286 15.8581 132.13 15.4837 131.915 15.1582C131.707 14.8327 131.44 14.5788 131.114 14.3965C130.795 14.2077 130.415 14.1133 129.972 14.1133C129.529 14.1133 129.145 14.2077 128.82 14.3965C128.501 14.5788 128.237 14.8327 128.029 15.1582C127.82 15.4837 127.667 15.8581 127.57 16.2812C127.472 16.6979 127.423 17.1406 127.423 17.6094ZM143.324 20.5098V12.4336H145.687V23H143.461L143.324 20.5098ZM143.656 18.3125L144.447 18.293C144.447 19.0026 144.369 19.6569 144.213 20.2559C144.056 20.8483 143.815 21.3659 143.49 21.8086C143.164 22.2448 142.748 22.5866 142.24 22.834C141.732 23.0749 141.123 23.1953 140.414 23.1953C139.899 23.1953 139.427 23.1204 138.998 22.9707C138.568 22.821 138.197 22.5898 137.884 22.2773C137.578 21.9648 137.341 21.5579 137.171 21.0566C137.002 20.5553 136.918 19.9564 136.918 19.2598V12.4336H139.271V19.2793C139.271 19.6634 139.317 19.9857 139.408 20.2461C139.499 20.5 139.623 20.7051 139.779 20.8613C139.935 21.0176 140.117 21.1283 140.326 21.1934C140.534 21.2585 140.755 21.291 140.99 21.291C141.66 21.291 142.188 21.1608 142.572 20.9004C142.963 20.6335 143.239 20.2754 143.402 19.8262C143.571 19.377 143.656 18.8724 143.656 18.3125ZM154.645 20.8125V8H157.008V23H154.869L154.645 20.8125ZM147.77 17.834V17.6289C147.77 16.8281 147.864 16.099 148.053 15.4414C148.242 14.7773 148.515 14.2077 148.873 13.7324C149.231 13.2507 149.667 12.8828 150.182 12.6289C150.696 12.3685 151.275 12.2383 151.92 12.2383C152.558 12.2383 153.118 12.362 153.6 12.6094C154.081 12.8568 154.492 13.2116 154.83 13.6738C155.169 14.1296 155.439 14.6764 155.641 15.3145C155.842 15.946 155.986 16.6491 156.07 17.4238V18.0781C155.986 18.8333 155.842 19.5234 155.641 20.1484C155.439 20.7734 155.169 21.3138 154.83 21.7695C154.492 22.2253 154.078 22.5768 153.59 22.8242C153.108 23.0716 152.545 23.1953 151.9 23.1953C151.262 23.1953 150.686 23.0618 150.172 22.7949C149.664 22.528 149.231 22.1536 148.873 21.6719C148.515 21.1901 148.242 20.6237 148.053 19.9727C147.864 19.3151 147.77 18.6022 147.77 17.834ZM150.123 17.6289V17.834C150.123 18.3158 150.165 18.765 150.25 19.1816C150.341 19.5983 150.481 19.9661 150.67 20.2852C150.859 20.5977 151.103 20.8451 151.402 21.0273C151.708 21.2031 152.073 21.291 152.496 21.291C153.03 21.291 153.469 21.1738 153.814 20.9395C154.16 20.7051 154.43 20.3893 154.625 19.9922C154.827 19.5885 154.964 19.1393 155.035 18.6445V16.877C154.996 16.4928 154.915 16.1348 154.791 15.8027C154.674 15.4707 154.514 15.181 154.312 14.9336C154.111 14.6797 153.86 14.4844 153.561 14.3477C153.268 14.2044 152.919 14.1328 152.516 14.1328C152.086 14.1328 151.721 14.224 151.422 14.4062C151.122 14.5885 150.875 14.8392 150.68 15.1582C150.491 15.4772 150.351 15.8483 150.26 16.2715C150.169 16.6947 150.123 17.1471 150.123 17.6289Z" fill="#1A1A1A"/>
</svg>
